# File created by Blade
# Date/Time:  Tue Apr 07 21:12:38 2015
# Frame Rate: 120.000 fps
#------------------------------------------------------
:FULLY-SPECIFIED
:DEGREES
1567
root 9.540946 29.440078 9.091992 742.561725 -65.082927 -556.681536
Spine -12.780019 -23.547569 6.765548
Head -73.839640 1.894756 8.587923
LeftShoulder 167.951671 179.828414 223.162298
LeftArm 158.279091 -35.549916 -141.646768
LeftForeArm 31.532445 0.000000 121.774758
LeftHand -11.095292 -0.000000 -9.486831
LeftHandThumb1 -26.253704 0.000000 33.147579
RightShoulder -22.196871 53.584134 -57.804080
RightArm 79.162113 59.667329 90.973507
RightForeArm -28.405370 -0.000000 127.428685
RightHand -8.225376 -0.000000 10.429259
RightHandThumb1 -24.326973 -0.000000 -32.862282
LeftUpLeg 6.063584 2.058128 24.875786
LeftLeg 14.248175 -0.000000 -0.000000
LeftFoot 42.673253 12.922529 10.916298
LeftToeBase 99.933376 -0.000000 -0.000000
RightUpLeg -108.236878 -25.910956 7.552853
RightLeg -0.127230 -0.000000 0.000000
RightFoot 43.907613 -9.215833 5.439881
RightToeBase 32.851986 -0.000000 -0.000000
1568
root 9.690077 29.442703 9.082384 742.459936 -64.792178 -557.937149
Spine -11.752961 -23.703306 6.830528
Head -73.658615 1.497955 8.573702
LeftShoulder 168.217617 179.626338 223.163677
LeftArm 158.180925 -35.560164 -141.639660
LeftForeArm 31.389261 -0.000000 121.938398
LeftHand -11.131909 -0.000000 -9.549119
LeftHandThumb1 -26.253704 0.000000 33.147579
RightShoulder -21.926312 53.469723 -57.714365
RightArm 79.075574 59.704626 91.205228
RightForeArm -27.545779 0.000000 127.609214
RightHand -8.087531 -0.000000 11.045332
RightHandThumb1 -24.326973 -0.000000 -32.862282
LeftUpLeg 5.874214 2.379721 24.652658
LeftLeg 14.112758 -0.000000 -0.000000
LeftFoot 42.508104 13.104547 10.923971
LeftToeBase 99.444334 -0.000000 -0.000000
RightUpLeg -108.708881 -25.936913 7.538400
RightLeg -0.011192 -0.000000 0.000000
RightFoot 43.982909 -9.146513 5.481283
RightToeBase 32.697569 -0.000000 -0.000000
1569
root 9.848356 29.441589 9.073973 742.298915 -64.440777 -559.181763
Spine -10.702161 -23.890850 6.874700
Head -73.356629 1.155987 8.611015
LeftShoulder 168.243513 -179.191263 223.512549
LeftArm 156.392756 -36.484206 -140.672705
LeftForeArm 31.499123 -0.000000 122.266135
LeftHand -11.162223 0.000000 -9.759370
LeftHandThumb1 -26.253704 0.000000 33.147579
RightShoulder -21.543305 53.254696 -57.513002
RightArm 78.978665 59.792563 91.357351
RightForeArm -27.097802 -0.000000 127.774344
RightHand -7.984143 -0.000000 11.322980
RightHandThumb1 -24.326973 -0.000000 -32.862282
LeftUpLeg 5.717281 2.571616 24.428381
LeftLeg 14.023238 -0.000000 -0.000000
LeftFoot 42.238148 13.143273 10.975175
LeftToeBase 99.225286 -0.000000 -0.000000
RightUpLeg -109.200859 -26.046029 7.530325
RightLeg 0.276518 -0.000000 -0.000000
RightFoot 44.154919 -9.505199 5.878518
RightToeBase 32.228069 -0.000000 -0.000000
1570
root 10.012375 29.430425 9.067526 742.178115 -64.079687 -560.523556
Spine -9.615775 -24.094454 6.953633
Head -73.062669 0.890788 8.573221
LeftShoulder 168.407052 -179.304227 223.466984
LeftArm 155.900261 -36.441709 -140.255672
LeftForeArm 31.893688 0.000000 122.512294
LeftHand -11.288774 -0.000000 -10.019192
LeftHandThumb1 -26.253704 0.000000 33.147579
RightShoulder -21.084664 53.041367 -57.184670
RightArm 78.637208 59.794165 91.133154
RightForeArm -27.352590 0.000000 127.949333
RightHand -8.127744 -0.000000 11.190955
RightHandThumb1 -24.326973 -0.000000 -32.862282
LeftUpLeg 5.597343 2.685716 24.214683
LeftLeg 13.984996 -0.000000 -0.000000
LeftFoot 41.992354 13.153926 11.038126
LeftToeBase 99.091690 -0.000000 -0.000000
RightUpLeg -109.666912 -26.163216 7.549223
RightLeg 0.689707 -0.000000 -0.000000
RightFoot 44.188252 -10.142202 6.422577
RightToeBase 32.770140 -0.000000 -0.000000
1571
root 10.181539 29.415401 9.060902 741.990392 -63.709574 -561.801349
Spine -8.572896 -24.258553 7.001432
Head -72.700530 0.634154 8.694389
LeftShoulder 168.668198 -179.425802 223.465157
LeftArm 155.560811 -36.233917 -140.149771
LeftForeArm 31.612654 -0.000000 122.868692
LeftHand -11.372154 -0.000000 -11.527496
LeftHandThumb1 -26.253704 0.000000 33.147579
RightShoulder -20.428201 52.765904 -56.774609
RightArm 77.967667 60.008507 90.414566
RightForeArm -28.403187 -0.000000 128.140435
RightHand -8.601315 0.000000 10.649357
RightHandThumb1 -24.326973 -0.000000 -32.862282
LeftUpLeg 5.452940 2.717340 23.952353
LeftLeg 14.024349 -0.000000 -0.000000
LeftFoot 41.835903 13.127196 11.083277
LeftToeBase 99.036559 -0.000000 -0.000000
RightUpLeg -110.100392 -26.343022 7.361106
RightLeg 1.303985 -0.000000 -0.000000
RightFoot 44.363488 -10.485369 6.567137
RightToeBase 32.512940 -0.000000 -0.000000
1572
root 10.356915 29.394305 9.052443 741.770480 -63.299814 -563.079804
Spine -7.532495 -24.446435 7.040404
Head -72.498141 0.461734 8.621148
LeftShoulder 169.039475 -179.635166 223.472012
LeftArm 155.275225 -36.228786 -139.977978
LeftForeArm 31.999474 -0.000000 123.071772
LeftHand -11.456179 -0.000000 -11.826731
LeftHandThumb1 -26.253704 0.000000 33.147579
RightShoulder -19.941526 52.435406 -56.345535
RightArm 77.578862 59.790086 90.156538
RightForeArm -28.663306 0.000000 128.305870
RightHand -8.636169 0.000000 10.517305
RightHandThumb1 -24.326973 -0.000000 -32.862282
LeftUpLeg 5.294859 2.660600 23.691265
LeftLeg 14.137840 -0.000000 -0.000000
LeftFoot 41.668273 13.319843 10.925134
LeftToeBase 98.847014 -0.000000 -0.000000
RightUpLeg -110.498625 -26.594506 7.045471
RightLeg 2.106519 -0.000000 -0.000000
RightFoot 44.606722 -10.535227 6.405858
RightToeBase 32.263781 -0.000000 -0.000000
